<?xml version="1.0" standalone="no"?>
<!DOCTYPE svg PUBLIC "-//W3C//DTD SVG 20010904//EN"
 "http://www.w3.org/TR/2001/REC-SVG-20010904/DTD/svg10.dtd">
<svg version="1.0" xmlns="http://www.w3.org/2000/svg"
 width="500.000000pt" height="500.000000pt" viewBox="0 0 500.000000 500.000000"
 preserveAspectRatio="xMidYMid meet">
<metadata>
Created by potrace 1.14, written by Peter Selinger 2001-2017
</metadata>
<g transform="translate(0.000000,500.000000) scale(0.100000,-0.100000)"
fill="#000000" stroke="none">
<path d="M213 4981 c-92 -31 -158 -96 -194 -190 -18 -50 -19 -105 -18 -2293 0
-2209 0 -2244 20 -2294 27 -71 89 -139 158 -172 l56 -27 2265 0 2265 0 57 28
c65 32 121 89 152 156 l21 46 2 2255 c2 2251 2 2255 -19 2308 -28 74 -99 147
-174 177 l-59 24 -1378 1 c-1469 0 -1395 2 -1445 -49 -58 -59 -60 -152 -5
-213 44 -49 27 -48 798 -48 l722 0 -1 -626 -1 -627 -915 1 c-503 0 -925 1
-937 1 l-21 1 0 718 c1 643 -1 721 -15 747 -54 99 -22 95 -699 95 -533 -1
-587 -2 -635 -19z m1037 -606 l0 -314 -470 0 -470 0 0 314 0 315 470 0 470 0
0 -315z m3439 0 l1 -314 -470 0 -470 0 0 315 0 314 469 0 470 -1 0 -314z
m-3441 -937 l-3 -313 -455 -1 c-250 0 -461 2 -467 4 -10 3 -13 75 -13 313 l0
309 470 0 470 0 -2 -312z m3439 0 l-2 -313 -467 0 -468 0 0 312 0 313 470 0
470 0 -3 -312z m-1261 -317 c9 -1 11 -163 10 -623 l-1 -623 -935 0 -935 0 -2
615 c-1 338 0 620 1 625 2 7 319 10 927 9 508 -1 929 -2 935 -3z m-2183 -311
c4 0 7 -139 7 -310 l0 -310 -67 0 c-107 -1 -794 -1 -835 0 l-38 0 0 309 0 310
43 3 c30 2 822 1 890 -2z m3394 0 l52 0 0 -310 1 -310 -28 0 c-43 -1 -748 -1
-834 0 l-78 0 0 308 c0 170 2 311 4 313 2 2 190 3 418 2 227 -2 436 -3 465 -3z
m-3389 -1247 l2 -313 -470 0 -470 0 0 308 c0 170 2 311 4 313 2 2 213 4 468 4
l463 0 3 -312z m3434 308 c4 0 8 -140 8 -311 l0 -310 -470 0 -470 0 0 308 c0
170 2 311 4 313 4 4 907 4 928 0z m-1245 -934 l1 -626 -936 2 -937 2 -1 622
-2 622 42 3 c22 2 444 2 936 2 l895 -1 2 -626z m-2187 -312 l0 -314 -470 0
-470 0 0 313 0 314 470 1 470 0 0 -314z m3437 2 l-2 -312 -467 -2 -468 -3 0
314 0 314 469 0 470 1 -2 -312z"/>
</g>
</svg>
